<svg xmlns="http://www.w3.org/2000/svg" xmlns:xlink="http://www.w3.org/1999/xlink" viewBox="0 0 212.29 58.97"><defs><filter id="luminosity-invert" filterUnits="userSpaceOnUse" color-interpolation-filters="sRGB"><feColorMatrix values="-1 0 0 0 1 0 -1 0 0 1 0 0 -1 0 1 0 0 0 1 0"/></filter><mask id="mask" x="0" y="8.2" width="113.04" height="50.77" maskUnits="userSpaceOnUse"><g style="filter:url(#luminosity-invert)"><path d="M41.68,51.12,28.17,15.61H17.95L4.34,51.12h9.84L18,40.55H28l3.6,10.56m-12.45-13L23.1,26.75l3.77,11.38Z" style="fill:#1d1d1b;stroke:#fff;stroke-miterlimit:10;stroke-width:0.288223807840705px"/><polyline points="50.82 51.12 50.82 38.24 53.75 38.66 62.89 51.12 74.8 51.12 60.57 33.77 74.03 15.61 62.2 15.61 50.9 30.29 50.9 15.61 41.67 15.61 41.67 51.12" style="fill:#1d1d1b;stroke:#fff;stroke-miterlimit:10;stroke-width:0.288223807840705px"/><polyline points="74.07 51.12 74.07 51.12 83.22 40.74 83.3 15.61 74.07 15.61 74.07 51.12" style="fill:#1d1d1b;stroke:#fff;stroke-miterlimit:10;stroke-width:0.288223807840705px"/><polygon points="83.22 35.9 95.28 51.12 107.2 51.12 91.98 32.52 83.22 35.9" style="fill:#1d1d1b;stroke:#fff;stroke-miterlimit:10;stroke-width:0.288223807840705px"/></g></mask><linearGradient id="Безымянный_градиент_6" x1="15.71" y1="74.4" x2="97.33" y2="-7.22" gradientUnits="userSpaceOnUse"><stop offset="0" stop-color="#2d2b85"/><stop offset="0.08" stop-color="#2d3e93"/><stop offset="0.28" stop-color="#2c66b0"/><stop offset="0.48" stop-color="#2c86c8"/><stop offset="0.66" stop-color="#2b9dd8"/><stop offset="0.84" stop-color="#2baae3"/><stop offset="1" stop-color="#2bafe6"/></linearGradient><linearGradient id="Безымянный_градиент_22" x1="89.35" y1="46.37" x2="25.06" y2="9.25" gradientUnits="userSpaceOnUse"><stop offset="0" stop-color="#2d2b85"/><stop offset="1" stop-color="#2bafe6"/></linearGradient><linearGradient id="Безымянный_градиент_10" x1="96.27" y1="14.49" x2="111.83" y2="-1.07" gradientUnits="userSpaceOnUse"><stop offset="0" stop-color="#2d2b85"/><stop offset="0.11" stop-color="#314094"/><stop offset="0.4" stop-color="#3a71b8"/><stop offset="0.66" stop-color="#4195d2"/><stop offset="0.87" stop-color="#45abe1"/><stop offset="1" stop-color="#47b3e7"/></linearGradient><linearGradient id="Безымянный_градиент_10-2" x1="106.53" y1="21.94" x2="106.53" y2="0" xlink:href="#Безымянный_градиент_10"/></defs><title>Ресурс 2logo-full</title><g id="Слой_2" data-name="Слой 2"><g id="ЛОГО"><g id="ЛОГО-2" data-name="ЛОГО"><g style="mask:url(#mask)"><rect x="0.14" y="8.35" width="112.76" height="50.48" style="stroke:#fff;stroke-miterlimit:10;stroke-width:0.288223807840705px;fill:url(#Безымянный_градиент_6)"/></g><polygon points="97.6 12.8 71.43 46.96 60.51 33.77 10.83 33.91 8.32 40.6 54.81 40.47 64.77 53.65 77.9 53.65 107.11 15.61 97.6 12.8" style="fill:url(#Безымянный_градиент_22)"/><polygon points="93.23 11.45 100.15 16.69 112.9 0 93.23 11.45" style="fill:url(#Безымянный_градиент_10)"/><polygon points="100.15 16.69 107.08 21.94 112.9 0 112.9 0 100.15 16.69" style="fill:url(#Безымянный_градиент_10-2)"/><path d="M116.32,29.28h.77v2.85l3-2.85h1l-3.64,3.4,3.93,4.18h-1l-3.32-3.53v3.53h-.77Z" style="fill:#1f3c87"/><path d="M126.16,29.09A3.94,3.94,0,0,1,129,30.24a4,4,0,0,1-2.82,6.82,3.88,3.88,0,0,1-2.85-1.15,3.8,3.8,0,0,1-1.16-2.79,4,4,0,0,1,.53-2,3.91,3.91,0,0,1,3.42-2Zm0,.74a3.24,3.24,0,0,0-2.77,1.62A3.29,3.29,0,0,0,123,33.1a3.19,3.19,0,0,0,3.2,3.21,3.24,3.24,0,0,0,1.63-.43A3.07,3.07,0,0,0,129,34.72a3.29,3.29,0,0,0,.42-1.65,3.21,3.21,0,0,0-.42-1.63,3.15,3.15,0,0,0-1.18-1.17A3.21,3.21,0,0,0,126.2,29.83Z" style="fill:#1f3c87"/><path d="M131.38,36.86l1.09-7.58h.12l3.08,6.22,3.05-6.22h.12l1.09,7.58h-.74l-.75-5.42-2.68,5.42h-.19l-2.71-5.46-.75,5.46Z" style="fill:#1f3c87"/><path d="M141.09,36.86l1.09-7.58h.12l3.08,6.22,3.05-6.22h.12l1.09,7.58h-.74l-.75-5.42-2.68,5.42h-.19l-2.71-5.46-.75,5.46Z" style="fill:#1f3c87"/><path d="M151.14,29.28h4.35V30H151.9V32.4h3.56v.74H151.9v3h3.56v.74h-4.31Z" style="fill:#1f3c87"/><path d="M156.79,29.28h1.51a8.7,8.7,0,0,1,1.75.11,1.94,1.94,0,0,1,1.06.66,1.89,1.89,0,0,1,.41,1.25,1.91,1.91,0,0,1-.4,1.25,2,2,0,0,1-1.11.66,9.8,9.8,0,0,1-1.93.12h-.54v3.53h-.76Zm.76.74v2.57l1.28,0a3.36,3.36,0,0,0,1.14-.14,1.17,1.17,0,0,0,.57-.46,1.27,1.27,0,0,0,.21-.71,1.25,1.25,0,0,0-.21-.7,1.14,1.14,0,0,0-.54-.45,3.28,3.28,0,0,0-1.11-.13Z" style="fill:#1f3c87"/><path d="M166.14,32.55V29.28h.76v7.58h-.76V33.29h-.55a10.5,10.5,0,0,1-1.66-.09,2.15,2.15,0,0,1-.93-.4,1.58,1.58,0,0,1-.56-.76,4.05,4.05,0,0,1-.15-1.24v-1.5H163v1.55a1.86,1.86,0,0,0,.38,1.34,1.76,1.76,0,0,0,1.28.38h1.45Z" style="fill:#1f3c87"/><path d="M168.74,29.28h4.35V30h-3.59V32.4h3.56v.74h-3.56v3h3.56v.74h-4.31Z" style="fill:#1f3c87"/><path d="M181.45,30.69l-.6.46a3.27,3.27,0,0,0-1.19-1,3.48,3.48,0,0,0-1.52-.33,3.37,3.37,0,0,0-1.68.44,3.13,3.13,0,0,0-1.2,1.17,3.24,3.24,0,0,0-.43,1.65,3.1,3.1,0,0,0,1,2.31,3.3,3.3,0,0,0,2.4.93,3.37,3.37,0,0,0,2.66-1.25l.6.45A3.82,3.82,0,0,1,180,36.66a4.44,4.44,0,0,1-1.89.39A3.94,3.94,0,0,1,175,35.73a4,4,0,0,1-1-2.7,3.76,3.76,0,0,1,1.17-2.8,4,4,0,0,1,2.93-1.14,4.29,4.29,0,0,1,1.92.42A3.72,3.72,0,0,1,181.45,30.69Z" style="fill:#1f3c87"/><path d="M183,29.28h.77v2.85l3-2.85h1l-3.64,3.4,3.93,4.18h-1l-3.32-3.53v3.53H183Z" style="fill:#1f3c87"/><path d="M192.82,29.09a3.94,3.94,0,0,1,2.88,1.15,4,4,0,0,1-2.82,6.82A3.88,3.88,0,0,1,190,35.9a3.8,3.8,0,0,1-1.16-2.79,4,4,0,0,1,.53-2,3.91,3.91,0,0,1,3.42-2Zm0,.74a3.24,3.24,0,0,0-2.77,1.62,3.29,3.29,0,0,0-.42,1.66,3.19,3.19,0,0,0,3.2,3.21,3.24,3.24,0,0,0,1.63-.43,3.07,3.07,0,0,0,1.17-1.17,3.29,3.29,0,0,0,.42-1.65,3.21,3.21,0,0,0-.42-1.63,3.15,3.15,0,0,0-1.18-1.17A3.21,3.21,0,0,0,192.86,29.83Z" style="fill:#1f3c87"/><path d="M199.13,36.86h-.76V29.28h3.8V30h-3Z" style="fill:#1f3c87"/><path d="M206.87,29.09a3.94,3.94,0,0,1,2.88,1.15,4,4,0,0,1-2.82,6.82,3.88,3.88,0,0,1-2.85-1.15,3.8,3.8,0,0,1-1.16-2.79,4,4,0,0,1,.53-2,3.91,3.91,0,0,1,3.42-2Zm0,.74a3.24,3.24,0,0,0-2.77,1.62,3.29,3.29,0,0,0-.42,1.66,3.19,3.19,0,0,0,3.2,3.21,3.24,3.24,0,0,0,1.63-.43,3.07,3.07,0,0,0,1.17-1.17,3.29,3.29,0,0,0,.42-1.65,3.21,3.21,0,0,0-.42-1.63,3.15,3.15,0,0,0-1.18-1.17A3.21,3.21,0,0,0,206.91,29.83Z" style="fill:#1f3c87"/><path d="M121.31,16.34l4.39,9.42h-1l-1.48-3.1h-4.06l-1.47,3.1h-1.05l4.45-9.42Zm-.12,2-1.61,3.41h3.22Z" style="fill:#1f3c87"/><path d="M128.09,25.76h-.94V16.34h4.72v.92h-3.78Z" style="fill:#1f3c87"/><path d="M133.22,16.34h5.4v.92h-4.46v3h4.42v.92h-4.42v3.7h4.42v.92h-5.36Z" style="fill:#1f3c87"/><path d="M140.24,16.34h.94v4H146v-4h.94v9.42H146V21.22h-4.8v4.55h-.94Z" style="fill:#1f3c87"/><path d="M148.28,17.26v-.92h5.16v.92h-2.1v8.5h-1v-8.5Z" style="fill:#1f3c87"/><path d="M163.57,18.09l-.74.57a4.06,4.06,0,0,0-1.48-1.21,4.32,4.32,0,0,0-1.89-.41,4.18,4.18,0,0,0-2.09.54A3.89,3.89,0,0,0,155.88,19a4,4,0,0,0-.53,2.05A3.85,3.85,0,0,0,156.54,24a4.1,4.1,0,0,0,3,1.15,4.19,4.19,0,0,0,3.31-1.55l.74.56a4.75,4.75,0,0,1-1.76,1.39,5.52,5.52,0,0,1-2.35.49,4.89,4.89,0,0,1-3.9-1.65,5,5,0,0,1-1.2-3.36,4.67,4.67,0,0,1,1.45-3.48,5,5,0,0,1,3.63-1.41,5.33,5.33,0,0,1,2.38.52A4.62,4.62,0,0,1,163.57,18.09Z" style="fill:#1f3c87"/><path d="M164.53,17.26v-.92h5.16v.92h-2.1v8.5h-1v-8.5Z" style="fill:#1f3c87"/><path d="M171.07,16.34h1.86a4.41,4.41,0,0,1,1.72.27,2.11,2.11,0,0,1,1,.82,2.24,2.24,0,0,1,.35,1.22,2.2,2.2,0,0,1-.31,1.14,2.27,2.27,0,0,1-.9.84,3.48,3.48,0,0,1,1.13.59,2.35,2.35,0,0,1,.62.81,2.44,2.44,0,0,1,.22,1,2.54,2.54,0,0,1-.83,1.92,3.11,3.11,0,0,1-2.23.78h-2.59Zm.92.92v3h.54A4.21,4.21,0,0,0,174,20.1a1.55,1.55,0,0,0,.73-.58,1.51,1.51,0,0,0,.27-.87,1.24,1.24,0,0,0-.45-1,2.28,2.28,0,0,0-1.44-.37Zm0,4v3.61h1.17a4.19,4.19,0,0,0,1.51-.2,1.72,1.72,0,0,0,.77-.63,1.65,1.65,0,0,0-.12-2,2.11,2.11,0,0,0-1.13-.64,8.28,8.28,0,0,0-1.68-.11Z" style="fill:#1f3c87"/><path d="M183.06,16.11a4.89,4.89,0,0,1,3.58,1.43,5,5,0,0,1,0,7A4.77,4.77,0,0,1,183.14,26a4.82,4.82,0,0,1-3.54-1.43,4.72,4.72,0,0,1-1.44-3.47,5,5,0,0,1,.66-2.52,4.85,4.85,0,0,1,4.25-2.47Zm0,.92a4,4,0,0,0-3.44,2,4.08,4.08,0,0,0-.53,2.06,4,4,0,0,0,4,4,4,4,0,0,0,2-.53,3.81,3.81,0,0,0,1.46-1.45,4.09,4.09,0,0,0,.52-2.05,4,4,0,0,0-.52-2,3.91,3.91,0,0,0-1.47-1.45A4,4,0,0,0,183.11,17Z" style="fill:#1f3c87"/><path d="M116.05,40.13h1v3.54l3.77-3.54H122l-4.53,4.23,4.88,5.19h-1.25L117,45.17v4.39h-1Z" style="fill:#1f3c87"/><path d="M128.29,39.9a4.89,4.89,0,0,1,3.58,1.43,5,5,0,0,1-3.51,8.47,4.82,4.82,0,0,1-3.54-1.43,4.72,4.72,0,0,1-1.44-3.47,5,5,0,0,1,.66-2.52,4.85,4.85,0,0,1,4.25-2.47Zm0,.92a4,4,0,0,0-3.44,2,4.08,4.08,0,0,0-.53,2.06,4,4,0,0,0,4,4,4,4,0,0,0,2-.53,3.81,3.81,0,0,0,1.46-1.45,4.09,4.09,0,0,0,.52-2.05,4,4,0,0,0-.52-2,3.91,3.91,0,0,0-1.47-1.45A4,4,0,0,0,128.33,40.81Z" style="fill:#1f3c87"/><path d="M135.19,40.13h.94v4h4.8v-4h.94v9.42h-.94V45h-4.8v4.55h-.94Z" style="fill:#1f3c87"/><path d="M152.94,41.88l-.74.57a4.06,4.06,0,0,0-1.48-1.21,4.32,4.32,0,0,0-1.89-.41,4.18,4.18,0,0,0-2.09.54,3.89,3.89,0,0,0-1.49,1.45,4,4,0,0,0-.53,2.05,3.85,3.85,0,0,0,1.18,2.88,4.1,4.1,0,0,0,3,1.15,4.19,4.19,0,0,0,3.31-1.55l.74.56a4.75,4.75,0,0,1-1.76,1.39,5.52,5.52,0,0,1-2.35.49,4.89,4.89,0,0,1-3.9-1.65,5,5,0,0,1-1.2-3.36,4.67,4.67,0,0,1,1.45-3.48,5,5,0,0,1,3.63-1.41,5.33,5.33,0,0,1,2.38.52A4.62,4.62,0,0,1,152.94,41.88Z" style="fill:#1f3c87"/><path d="M158.68,40.13l4.39,9.42h-1l-1.48-3.1h-4.06L155,49.55H154l4.45-9.42Zm-.12,2-1.61,3.41h3.22Z" style="fill:#1f3c87"/><path d="M172.16,49.55h-1L168,42.28l-3.17,7.28h-1l4.1-9.42h.21Z" style="fill:#1f3c87"/><path d="M172.81,41.05v-.92H178v.92h-2.1v8.5h-1v-8.5Z" style="fill:#1f3c87"/><path d="M186.74,49.55h-1V42.33l-6.21,7.22h-.21V40.13h.94v7.35l6.25-7.35h.21Z" style="fill:#1f3c87"/><path d="M189,40.13H190v4h4.8v-4h.94v9.42h-.94V45H190v4.55H189Z" style="fill:#1f3c87"/><path d="M198.92,49.55H198V40.13h4.72v.92h-3.78Z" style="fill:#1f3c87"/><path d="M207.9,40.13l4.39,9.42h-1l-1.48-3.1h-4.06l-1.47,3.1h-1.05l4.45-9.42Zm-.12,2-1.61,3.41h3.22Z" style="fill:#1f3c87"/></g></g></g></svg>