<svg xmlns="http://www.w3.org/2000/svg" xmlns:xlink="http://www.w3.org/1999/xlink" viewBox="0 0 113.04 58.97"><defs><filter id="luminosity-invert" filterUnits="userSpaceOnUse" color-interpolation-filters="sRGB"><feColorMatrix values="-1 0 0 0 1 0 -1 0 0 1 0 0 -1 0 1 0 0 0 1 0"/></filter><mask id="mask" x="0" y="8.2" width="113.04" height="50.77" maskUnits="userSpaceOnUse"><g style="filter:url(#luminosity-invert)"><path d="M41.68,51.12,28.17,15.61H17.95L4.34,51.12h9.84L18,40.55H28l3.6,10.56m-12.45-13L23.1,26.75l3.77,11.38Z" style="fill:#1d1d1b;stroke:#fff;stroke-miterlimit:10;stroke-width:0.288223807840705px"/><polyline points="50.82 51.12 50.82 38.24 53.75 38.66 62.89 51.12 74.8 51.12 60.57 33.77 74.03 15.61 62.2 15.61 50.9 30.29 50.9 15.61 41.67 15.61 41.67 51.12" style="fill:#1d1d1b;stroke:#fff;stroke-miterlimit:10;stroke-width:0.288223807840705px"/><polyline points="74.07 51.12 74.07 51.12 83.22 40.74 83.3 15.61 74.07 15.61 74.07 51.12" style="fill:#1d1d1b;stroke:#fff;stroke-miterlimit:10;stroke-width:0.288223807840705px"/><polygon points="83.22 35.9 95.28 51.12 107.2 51.12 91.98 32.52 83.22 35.9" style="fill:#1d1d1b;stroke:#fff;stroke-miterlimit:10;stroke-width:0.288223807840705px"/></g></mask><linearGradient id="Безымянный_градиент_6" x1="15.71" y1="74.4" x2="97.33" y2="-7.22" gradientUnits="userSpaceOnUse"><stop offset="0" stop-color="#2d2b85"/><stop offset="0.08" stop-color="#2d3e93"/><stop offset="0.28" stop-color="#2c66b0"/><stop offset="0.48" stop-color="#2c86c8"/><stop offset="0.66" stop-color="#2b9dd8"/><stop offset="0.84" stop-color="#2baae3"/><stop offset="1" stop-color="#2bafe6"/></linearGradient><linearGradient id="Безымянный_градиент_22" x1="89.35" y1="46.37" x2="25.06" y2="9.25" gradientUnits="userSpaceOnUse"><stop offset="0" stop-color="#2d2b85"/><stop offset="1" stop-color="#2bafe6"/></linearGradient><linearGradient id="Безымянный_градиент_10" x1="96.27" y1="14.49" x2="111.83" y2="-1.07" gradientUnits="userSpaceOnUse"><stop offset="0" stop-color="#2d2b85"/><stop offset="0.11" stop-color="#314094"/><stop offset="0.4" stop-color="#3a71b8"/><stop offset="0.66" stop-color="#4195d2"/><stop offset="0.87" stop-color="#45abe1"/><stop offset="1" stop-color="#47b3e7"/></linearGradient><linearGradient id="Безымянный_градиент_10-2" x1="106.53" y1="21.94" x2="106.53" y2="0" xlink:href="#Безымянный_градиент_10"/></defs><title>Ресурс 1logo-small</title><g id="Слой_2" data-name="Слой 2"><g id="ЛОГО"><g id="ЛОГО-2" data-name="ЛОГО"><g style="mask:url(#mask)"><rect x="0.14" y="8.35" width="112.76" height="50.48" style="stroke:#fff;stroke-miterlimit:10;stroke-width:0.288223807840705px;fill:url(#Безымянный_градиент_6)"/></g><polygon points="97.6 12.8 71.43 46.96 60.51 33.77 10.83 33.91 8.32 40.6 54.81 40.47 64.77 53.65 77.9 53.65 107.11 15.61 97.6 12.8" style="fill:url(#Безымянный_градиент_22)"/><polygon points="93.23 11.45 100.15 16.69 112.9 0 93.23 11.45" style="fill:url(#Безымянный_градиент_10)"/><polygon points="100.15 16.69 107.08 21.94 112.9 0 112.9 0 100.15 16.69" style="fill:url(#Безымянный_градиент_10-2)"/></g></g></g></svg>